<svg xmlns="http://www.w3.org/2000/svg" xml:space="preserve" viewBox="0 0 512 512"><path d="M256.4 0c-26 0-50.1 11.4-68.2 32.6-7.8 9.6-13.4 19.7-18.3 28.6l-1 1.9c-3.5 7-7.2 14.2-11.3 22.2l-.9 2C115.5 169 80 243 47.6 314.9l-2 4.4c-1.4 3-2.8 6.1-4 8.9l-1.8 3.8c-1.3 2.8-2.6 5.7-3.6 8.2-2.5 5.7-5 11.6-7.8 18.8-6.7 19.8-8.6 37.7-6 56.7 5.8 39.2 31.8 72.9 67.8 87.9 13.8 5.7 27.7 8.4 42.5 8.4 3.3 0 8.1-.3 13.6-1 17.8-2.3 35.2-8.3 51.3-17.8 18.8-10.6 37.2-25.8 57.7-47.7l.8 1.1.3-.5c19.2 20.5 37.8 36 56.6 46.9 16.4 9.6 33.7 15.6 51.2 17.8 5.7.8 10.6 1.1 14.2 1.1 14.6 0 28.7-2.8 42.1-8.6 35.7-14.3 61.6-47.3 67.8-86.3l.6-3.5c3.4-16.6 1.7-34.3-5-54-.9-2.5-1.9-5.1-2.5-6.3-1.6-4.4-3.4-8.6-4.9-11.8-1.3-3.2-2.7-6.1-4-9l-3.4-7.6c-1.1-2.6-2.2-5.1-3.4-7.6l-1.4-2.7c-35.1-77.4-71.6-153.4-108.5-226l-1.8-3.6q-5.85-10.95-12-23.7l-1.2-2.3c-4.4-7.9-8.9-16-15.6-24.1l-1-1.3C307.4 11.9 283.3 0 256.4 0m-.5 43.1c12.6-.2 25 5 33.8 15.5l2.3 2.8c4.5 5.1 7.6 10.9 11.2 17.2l1.3 2.8c3.9 7.9 8.1 16.2 12 23.3l1.5 3.1c36.7 72.1 73 147.6 107.5 223.8l3 6.8.3.3 1.4 3.2 3.8 8.6c1 2.2 2.1 4.5 3.4 7.8 1.3 3 2.8 6.4 4.7 11.3l1.6 3.9v.1c4.5 13 5.4 23.5 3.2 33l-.5 3.2c-3.6 24.6-19.6 45.4-43 54.8-6.9 3.1-15.7 4.9-24.8 4.9-2 0-4.8-.2-8.4-.7-12.1-1.5-24-5.7-35.5-12.4-16.8-9.7-33.8-24.3-51.9-44.5l1.4-1.8c29.2-38.1 47.4-72.9 54.3-103.5v-.2c3.3-15.1 3.9-29.4 2-42-1.6-12.3-6-24-12.9-34.7C312.5 206 285.9 192 256 192c-28.6 0-55.1 13.6-70.7 36.4l-1.2 2c-6.6 10.6-10.8 21.9-12.3 33.3-2.1 13.6-1.5 27.5 1.8 42.3 6.6 30.8 25.4 66.9 54.4 104.2l.9 1.1c-19.4 21.4-36 35.6-52.5 45-11.4 6.7-23.3 10.9-35.8 12.5-3.2.5-6 .6-7.9.6-9.3 0-17.6-1.6-26.1-5.2-22.3-9.3-38.4-30.2-41.9-54.5-1.7-12.1-.4-23.5 4-36.3 2.2-5.8 4.4-11 6.8-16.3 1-2.5 2.2-5 3.3-7.4l2-4.4c1.2-2.8 2.4-5.5 3.7-8.2l2.6-5.8c31.7-70.2 67-143.6 108.3-225.4l.7-1.7c3.8-7.2 7.6-14.8 11.2-22l.5-1.1c3.9-7 8.3-15 13.3-21.2 9.3-11 22.1-16.6 34.8-16.8m.1 191.6c15.1 0 28.3 6.6 35.3 17.8 3.6 5.6 5.8 11.3 6.7 17.8 1.2 7.7.7 17-1.4 26.9-5 22.6-18.7 49.1-40.7 79.1-21.7-29.4-35.7-56.6-40.5-79.4-2.2-9.7-2.7-18.4-1.3-27 .8-6 3-11.7 6.6-17.3l.4-.7c7.7-10.9 20.7-17.2 34.9-17.2"/></svg>