<?xml version="1.0" encoding="UTF-8"?>
<!DOCTYPE svg PUBLIC "-//W3C//DTD SVG 1.1//EN" "http://www.w3.org/Graphics/SVG/1.1/DTD/svg11.dtd">
<!-- Creator: CorelDRAW 2019 (64-Bit) -->
<svg xmlns="http://www.w3.org/2000/svg" xml:space="preserve" width="735.36mm" height="115.42mm" version="1.1" style="shape-rendering:geometricPrecision; text-rendering:geometricPrecision; image-rendering:optimizeQuality; fill-rule:evenodd; clip-rule:evenodd"
viewBox="0 0 73536 11542"
 xmlns:xlink="http://www.w3.org/1999/xlink">
 <defs>
  <style type="text/css">
   <![CDATA[
    .fil1 {fill:#435761}
    .fil0 {fill:#E30518}
   ]]>
  </style>
 </defs>
 <g id="Capa_x0020_1">
  <metadata id="CorelCorpID_0Corel-Layer"/>
  <g id="_2901416066816">
   <path class="fil0" d="M3216.32 9665.16c2571.2,450.43 9009.4,359.07 9156.47,-3886.2 0,-1705.24 -2035.89,-3201.97 -4069.54,-3659 -1456.97,-327.41 -2702.81,-452.17 -3912.63,-397.33 -859.35,38.88 -2127,178.72 -2922.04,452.67 -679.25,268.46 -1182.15,104.19 -1378.32,-260.11 -227.58,-422.51 -75.28,-1045.43 722.5,-1344.43 1904.28,-714.02 7592.69,-1104.13 10994.19,1066.74 1401.38,894 2657.19,2293.14 2657.19,4167.88 0,2042.12 -1301.55,3446.62 -2686.6,4313.57 -2983.36,1866.14 -7540.97,1472.05 -8948.08,1183.77 -813.48,-166.76 -1434.04,-551 -1434.04,-1619.11l0 -5310.15c0,-1259.3 1822.9,-1248.45 1822.9,10.6l-2.99 5281.1 0.99 0z"/>
   <path class="fil0" d="M22878.91 2207.33c-2037.89,0 -5470.05,6388.1 -6475.84,8678.24 -603.48,1372.47 -2512.12,395.09 -1909.27,-977.75 1083.2,-2462.88 5169.93,-9898.66 8368.66,-9832.72 3198.6,-65.94 7281.1,7369.84 8366.04,9833.47 603.35,1372.72 -1302.55,2351.21 -1906.03,977.75 -1009.16,-2290.27 -4408.91,-8678.37 -6443.56,-8678.37l0 -0.62z"/>
   <path class="fil0" d="M37134.51 9414.9c2037.89,0 5470.67,-6386.48 6476.47,-8677.63 603.47,-1374.08 2512.74,-396.33 1909.26,977.76 -1084.93,2462.26 -5170.68,9898.03 -8366.04,9832.1 -3201.96,65.93 -7287.7,-7369.84 -8369.27,-9832.1 -603.48,-1374.09 1302.54,-2351.84 1906.02,-977.76 1009.03,2290.15 4408.92,8677.63 6443.56,8677.63l0 0z"/>
   <path class="fil0" d="M48953.03 1221.97l0 9309.15c0,1390.91 -2044.49,1337.56 -2044.49,-53.47l0 -9281.72c0,-1438.03 2044.49,-1448 2044.49,26.04z"/>
   <path class="fil1" d="M52138.54 11151.42l0 -7078.32 1523.52 0 0 3064.74c247.28,-577.68 741.95,-1018.26 1612.51,-1018.26 969.53,0 1826.89,636.13 1826.89,2447.81 0,2202.77 -1362,2946.71 -2915.06,2946.71 -676.02,0 -1381.69,-126.88 -2047.86,-362.06l0 -0.62zm2219.23 -949.71c685.98,0 1134.41,-313.33 1134.41,-1429.55 0,-842.52 -303.35,-1164.95 -877.17,-1164.95 -514.36,0 -857.35,381.75 -857.35,920.67l0 1615.5c207.76,38.51 408.92,58.33 600.11,58.33z"/>
   <path class="fil1" d="M60418.83 10535.1c-313.33,655.83 -943.1,979 -1573,979 -791.43,0 -1401.51,-430.61 -1401.51,-1331.59 0,-1586.08 1708.23,-1507.94 2756.9,-1899.04 -95.72,-557.61 -544.15,-724.12 -1134.42,-724.12 -438.58,0 -916.8,68.3 -1391.66,176.36l0 -1419.58c560.61,-117.41 1134.42,-195.55 1658.75,-195.55 1371.85,0 2420.39,518.72 2420.39,2212.37l0 1223.4c0,489.32 0,1047.93 105.57,1850.57l-982.62 0c-171.49,-215.25 -333.14,-509.13 -458.4,-871.19l0 -0.63zm-972.77 -205.39c342.87,0 771.61,-323.55 771.61,-1047.67l0 -137.23c-636.5,245.03 -1210.19,176.73 -1210.19,744.32 0,293.38 181.34,440.58 438.58,440.58l0 0z"/>
   <path class="fil1" d="M65117.9 7607.21c-639.75,0 -877.18,420.76 -877.18,871.19l0 2927.64 -1619.11 0 0 -3044.67c0,-499.29 -9.85,-1243.6 -69.3,-2134.6l1022.25 0c161.65,205.39 333.14,597.49 445.19,999.18 211.13,-587.27 715.64,-1106.37 1668.59,-1106.37 1068.49,0 1810.43,626.91 1810.43,1997.38l0 3289.96 -1619.11 0 0 -2956.94c0,-548.39 -257.25,-842.15 -761.76,-842.15l0 -0.62z"/>
   <path class="fil1" d="M68385.79 4073.1l1619.12 0 0 7333.19 -1619.12 0 0 -7333.19zm3106.37 2154.04l1741.13 0c-333.02,832.3 -817.84,1615.13 -1408.11,2359.44l1704.87 2819.71 -1774.04 0 -1523.52 -2692.83c514.36,-754.16 972.76,-1615.13 1256.31,-2487.32l3.36 1z"/>
  </g>
 </g>
</svg>
