<?xml version="1.0" encoding="iso-8859-1"?>
<!-- Generator: Adobe Illustrator 28.0.0, SVG Export Plug-In . SVG Version: 6.00 Build 0)  -->
<svg version="1.1" id="Capa_1" xmlns="http://www.w3.org/2000/svg" xmlns:xlink="http://www.w3.org/1999/xlink" x="0px" y="0px"
	 viewBox="0 0 80.18 31.74" style="enable-background:new 0 0 80.18 31.74;" xml:space="preserve">
<g>
	<path style="fill:#CA0080;" d="M8.57,5.01H5.62C5.28,5.01,5,5.29,5,5.63v2.5c0,0.34,0.28,0.62,0.62,0.62h2.95
		c0.34,0,0.62-0.28,0.62-0.62v-2.5C9.19,5.29,8.91,5.01,8.57,5.01L8.57,5.01z"/>
	<path style="fill:#200020;" d="M26.58,5.01h-2.54c-0.35,0-0.62,0.28-0.62,0.62v10.16c0,0.21-0.27,0.28-0.37,0.1L17.14,5.28
		c-0.1-0.17-0.27-0.27-0.48-0.27h-4.23c-0.35,0-0.62,0.28-0.62,0.62v16.24c0,0.34,0.29,0.62,0.62,0.62h2.54
		c0.34,0,0.62-0.28,0.62-0.62V11.4c0-0.21,0.27-0.28,0.37-0.1l6.07,10.93c0.1,0.17,0.27,0.27,0.48,0.27h4.04
		c0.34,0,0.62-0.29,0.62-0.62V5.62C27.18,5.28,26.9,5,26.56,5L26.58,5.01L26.58,5.01L26.58,5.01z"/>
	<path style="fill:#200020;" d="M32.8,14.42c0.37-1.64,1.33-2.37,2.78-2.37c1.29,0,2.4,0.75,2.56,2.37H32.8L32.8,14.42L32.8,14.42z
		 M41.88,16.15c0-4.57-2.98-6.85-6.25-6.85c-4.25,0-6.68,2.95-6.68,6.92c0,4.52,3.04,6.68,6.58,6.68c3.53,0,5.59-1.82,6.15-4.19
		c0.07-0.31-0.1-0.58-0.56-0.58h-2c-0.22,0-0.43,0.12-0.52,0.34c-0.5,1.1-1.3,1.67-2.85,1.67c-1.75,0-2.93-1.1-3.1-3.32h8.59
		C41.61,16.83,41.87,16.56,41.88,16.15L41.88,16.15L41.88,16.15z"/>
	<path style="fill:#200020;" d="M74.56,9.63h-2.55c-0.34,0-0.62,0.28-0.62,0.62v11.62c0,0.34,0.28,0.62,0.62,0.62h2.55
		c0.34,0,0.62-0.28,0.62-0.62V10.25C75.18,9.91,74.91,9.63,74.56,9.63L74.56,9.63z"/>
	<path style="fill:#200020;" d="M49.8,20c-1.67,0-2.85-1.23-2.85-3.87c0-2.64,1.18-4.02,2.85-4.02c1.67,0,2.85,1.28,2.85,4.02
		S51.48,20,49.8,20L49.8,20z M55.59,9.63h-2.54c-0.34,0-0.62,0.29-0.62,0.62v0.63c-0.76-0.89-2.01-1.51-3.65-1.51
		c-3.68,0-5.62,3.32-5.62,6.85c0,3.08,1.6,6.53,5.54,6.53c1.41,0,2.91-0.67,3.73-1.63v5c0,0.35,0.28,0.62,0.62,0.62h2.54
		c0.34,0,0.62-0.28,0.62-0.62V10.27c0-0.34-0.28-0.62-0.62-0.62V9.63L55.59,9.63z"/>
	<path style="fill:#200020;" d="M69.14,9.63H66.6c-0.34,0-0.62,0.29-0.62,0.62v6.58c0,2.12-0.95,2.74-2.15,2.74
		c-1.21,0-2.15-0.62-2.15-2.74v-6.58c0-0.34-0.29-0.62-0.62-0.62H58.5c-0.34,0-0.62,0.29-0.62,0.62v6.85c0,4.07,2.25,5.71,5.95,5.71
		c3.7,0,5.95-1.65,5.95-5.71v-6.85c0-0.34-0.28-0.62-0.62-0.62H69.14L69.14,9.63L69.14,9.63z"/>
</g>
</svg>
