<svg height="585" viewBox="0 0 1000 242.775" width="2500" xmlns="http://www.w3.org/2000/svg"><path d="m118.11 206.065c21.546 36.71 56.66 36.71 77.409 0l11.97-20.749-106.139-185.144h-101.35zm225.045-79.005c-7.98 13.566-26.335 13.566-33.517 0l-73.42-126.888h-101.35l118.907 205.893c21.547 36.71 55.863 36.71 77.41 0l79.803-138.06-39.104-67.833h-101.35z" fill="#fd0"/><path d="m480.35 108.92h20.633v-.48c12.955-47.502 18.233-68.135 20.153-80.61 1.919 12.475 7.197 33.108 19.192 80.61v.48h21.113l29.749-108.92h-19.193v.48c-12.955 49.422-17.754 69.574-20.153 82.05-2.399-13.915-8.157-36.467-20.152-82.05v-.48h-20.153v.48c-12.475 48.942-17.753 70.054-20.153 83.49-2.399-13.436-8.157-35.028-20.632-83.49v-.48h-20.153l29.27 107.96.48.96zm143.948 1.44c15.834 0 30.708-8.637 36.466-21.113l-14.394-7.197h-.48l-.48.48c-1.92 3.838-8.157 11.995-21.592 11.995-11.996 0-21.112-7.677-22.552-18.713h61.897v-.96c.48-15.354-3.838-27.83-11.995-35.986-7.197-7.198-16.794-11.036-28.31-11.036s-21.592 4.318-28.79 11.995c-7.197 7.678-11.515 18.234-11.515 29.75.48 23.51 17.754 40.785 41.745 40.785zm-.96-67.656c11.516 0 20.153 7.198 21.112 17.274h-42.224c.96-9.596 10.076-17.274 21.112-17.274zm79.651 67.656c20.152 0 32.628-9.597 32.628-24.471 0-17.754-16.314-22.072-29.27-25.431-9.116-2.4-16.793-4.319-16.793-10.076 0-4.799 4.798-7.678 11.995-7.678 7.678 0 12.956 3.839 13.915 10.556l.48 3.36h.48l16.314-2.88c0-14.874-13.435-25.91-30.709-25.91s-30.229 10.076-30.229 23.99c0 17.274 15.834 21.112 28.31 24.471 9.117 2.4 17.274 4.798 17.274 10.556 0 5.278-5.278 8.637-13.435 8.637-10.077 0-16.315-4.798-17.274-11.996v-1.44l-17.275 3.362c-.48 15.834 17.754 24.95 33.588 24.95zm47.023-16.314c0 9.116 5.758 16.314 15.354 16.314 11.516 0 15.354-1.44 15.354-1.44v-15.354s-3.358.48-7.677.48c-2.879 0-4.798-1.92-4.798-4.319v-46.063h12.475v-15.354h-12.955v-22.072l-17.753 4.318v18.234h-9.117v15.355h9.117zm139.628-55.18v-10.077h-15.834v80.131h18.713v-48.942c0-4.798 1.92-8.637 4.799-11.036 3.838-3.359 10.076-4.318 18.233-3.359h.96v-16.793h-.96c-10.556-1.919-21.112 1.92-25.91 10.077zm78.212-11.516c-11.516 0-22.072 4.318-27.35 12.955v-11.515h-16.314v80.131h19.193v-43.185c0-13.915 7.197-22.072 19.193-22.072 8.157 0 18.233 3.839 18.233 20.632v44.144h19.193v-46.543c0-25.43-16.794-34.547-32.148-34.547zm-440.572 159.64c0 18.233-8.637 28.79-24.471 28.79-15.835 0-24.471-10.077-24.471-28.79v-63.816h-19.193v63.336c0 29.27 16.314 47.023 43.664 47.023s43.664-17.753 43.664-47.023v-63.336h-19.193zm73.893-36.466c-11.516 0-22.072 4.318-27.35 12.955v-11.516h-16.314v80.13h19.193v-43.183c0-13.914 7.197-22.071 19.193-22.071 8.157 0 18.233 3.838 18.233 20.632v44.144h19.193v-46.545c-.48-25.43-16.794-34.547-32.148-34.547zm43.664 1.439h18.713v80.13h-18.713zm9.596-29.749c-6.238 0-11.036 4.798-11.036 11.036s4.798 10.556 11.036 10.556 11.036-4.798 11.036-10.556c-.48-5.758-5.278-11.036-11.036-11.036zm59.978 28.31c-11.516 0-22.552 4.318-30.229 11.995s-11.995 18.233-11.995 29.75c0 23.99 17.753 41.744 42.224 41.744s42.225-17.274 42.225-41.745c0-11.516-4.319-22.072-11.996-29.749-7.677-8.157-18.233-11.995-30.229-11.995zm0 65.735c-13.435 0-23.991-10.556-23.991-24.47s10.076-24.472 23.991-24.472 23.991 10.557 23.991 24.471-10.076 24.471-23.99 24.471zm94.525-65.735c-11.515 0-22.071 4.318-27.35 12.955v-11.516h-16.314v80.13h19.193v-43.183c0-13.914 7.198-22.071 19.193-22.071 8.157 0 18.234 3.838 18.234 20.632v44.144h19.193v-46.545c0-25.43-16.314-34.547-32.149-34.547zm16.408-123.174c-11.516 0-21.592 4.318-28.79 11.996-7.197 7.677-11.515 18.233-11.515 29.749 0 24.47 17.273 41.265 41.745 41.265 15.834 0 30.708-8.637 36.466-21.113l-14.395-7.197h-.48l-.48.48c-1.919 3.838-8.156 11.995-21.591 11.995-11.996 0-21.113-7.677-22.552-18.713h61.897v-.96c.48-15.354-3.838-27.83-11.995-35.986-7.198-7.677-16.794-11.516-28.31-11.516zm-21.592 33.108c1.44-10.076 10.076-17.274 21.592-17.274s20.153 7.198 21.112 17.274z" stroke-width="4.798"/></svg>